<?xml version="1.0" encoding="utf-8"?>
<!-- Generator: Adobe Illustrator 22.1.0, SVG Export Plug-In . SVG Version: 6.00 Build 0)  -->
<svg version="1.1" id="Capa_1" xmlns="http://www.w3.org/2000/svg" xmlns:xlink="http://www.w3.org/1999/xlink" x="0px" y="0px"
	 viewBox="0 0 553.8 111.7" style="enable-background:new 0 0 553.8 111.7;" xml:space="preserve">
<style type="text/css">
	.st0{fill-rule:evenodd;clip-rule:evenodd;fill:#BF0811;}
	.st1{fill-rule:evenodd;clip-rule:evenodd;fill:#001D7E;}
	.st2{fill:#FFFFFF;}
</style>
<g>
	<polygon class="st0" points="0,0 267,0 235.9,111.7 0,111.7 0,0 	"/>
	<polygon class="st1" points="553.8,0 522.2,111.7 235.9,111.7 267,0 553.8,0 	"/>
	<path class="st2" d="M307.1,53c0.6-3.7,0.8-6.8,0.7-9.4c-0.1-2.6-0.6-4.7-1.3-6.4c-0.7-1.7-1.6-3.1-2.7-4c-1.1-1-2.3-1.7-3.7-2.1
		c-1.4-0.4-2.7-0.6-4.2-0.6c-2.7,0-5.4,0.6-7.9,1.7c-2.6,1.1-5,2.9-7.2,5.3c-2.3,2.4-4.4,5.5-6.3,9.2c-1.9,3.8-3.6,8.3-5,13.5
		c-1.4,5.3-2.3,9.8-2.5,13.7c-0.2,3.8,0.2,7,1.1,9.5c0.9,2.5,2.3,4.3,4.2,5.5c1.8,1.2,4.1,1.8,6.8,1.8c2.3,0,4.6-0.3,6.8-1
		c2.2-0.7,4.3-2,6.4-3.8c2.1-1.8,4-4.3,6-7.5c1.9-3.2,3.7-7.3,5.4-12.3c-3.2,0-6.4,0-9.5,0c-0.8,2.4-1.8,4.4-2.9,6.1
		c-1.2,1.7-2.4,3-3.7,4c-1.3,0.9-2.7,1.4-4.1,1.4c-1.9,0-3.4-0.7-4.3-2c-1-1.3-1.5-3.3-1.5-5.9c0-2.6,0.5-5.7,1.5-9.3
		c1-3.7,2.2-6.7,3.6-9.3c1.4-2.5,2.9-4.5,4.6-5.8c1.7-1.3,3.5-2,5.4-2c1.3,0,2.3,0.3,3.2,0.9c0.8,0.6,1.4,1.6,1.8,3.1
		c0.3,1.4,0.4,3.4,0.1,5.8C300.8,53,303.9,53,307.1,53L307.1,53z M308.3,60.3c-1.4,5.3-2.1,9.8-2.2,13.7c-0.1,3.8,0.3,7,1.3,9.5
		c1,2.5,2.5,4.3,4.5,5.5c2,1.2,4.4,1.8,7.2,1.8c2.8,0,5.5-0.6,8.1-1.8c2.6-1.2,5-3,7.3-5.5c2.3-2.5,4.3-5.6,6.2-9.5
		c1.8-3.8,3.4-8.4,4.8-13.7c1.3-5.3,2-9.8,2-13.5c0.1-3.8-0.4-6.9-1.4-9.3c-1-2.4-2.5-4.2-4.5-5.3c-1.9-1.1-4.3-1.7-7.1-1.7
		c-2.7,0-5.4,0.6-7.9,1.7c-2.5,1.1-4.9,2.9-7.2,5.3c-2.3,2.4-4.3,5.5-6.2,9.3C311.3,50.6,309.6,55.1,308.3,60.3L308.3,60.3z
		 M317.8,60.3c0.9-3.7,2.1-6.7,3.5-9.3c1.4-2.5,2.9-4.5,4.5-5.8c1.7-1.3,3.5-2,5.4-2c1.9,0,3.3,0.7,4.3,2c1,1.3,1.5,3.2,1.6,5.8
		c0.1,2.5-0.4,5.6-1.3,9.3c-0.9,3.7-2.1,6.8-3.4,9.3c-1.4,2.6-2.9,4.5-4.6,5.9c-1.7,1.3-3.5,2-5.4,2c-1.9,0-3.4-0.7-4.4-2
		c-1-1.3-1.5-3.3-1.6-5.9C316.4,67.1,316.8,64,317.8,60.3L317.8,60.3z M387.3,88.6c3.1,0,6.2,0,9.3,0c1.5-6.4,2.9-12.8,4.4-19.2
		c1.5-6.3,2.9-12.7,4.4-18.9c0.8-3.6,1.2-6.7,1.2-9.2c0-2.5-0.4-4.5-1.1-5.9c-0.7-1.5-1.6-2.5-2.8-3.2c-1.2-0.7-2.5-1-3.9-1
		c-2.5,0-5,0.9-7.3,2.7c-2.3,1.8-4.6,4.3-6.6,7.7c0-2.1-0.2-3.9-0.6-5.5c-0.4-1.5-1.2-2.7-2.3-3.6c-1.1-0.9-2.5-1.3-4.2-1.3
		c-1.3,0-2.7,0.3-4,0.8c-1.3,0.6-2.6,1.3-3.8,2.2c-1.2,0.9-2.3,1.9-3.3,3c-1,1.1-1.8,2.3-2.6,3.4c0,0-0.1,0-0.1,0
		c0.7-2.7,1.3-5.3,2-8c-2.9,0-5.9,0-8.8,0c-2.3,9.2-4.6,18.4-6.9,27.7c-2.3,9.3-4.6,18.8-7,28.2c3.1,0,6.2,0,9.3,0
		c1.3-5.1,2.5-10.2,3.7-15.3c1.2-5.1,2.5-10.1,3.7-15.2c0.5-2.2,1.2-4.1,1.9-5.7c0.8-1.6,1.6-3,2.5-4c0.9-1.1,1.8-1.8,2.8-2.4
		c1-0.5,1.9-0.8,2.9-0.8c0.7,0,1.3,0.1,1.8,0.4c0.6,0.3,1,0.8,1.4,1.5c0.4,0.7,0.6,1.7,0.6,2.9c0,1.2-0.2,2.8-0.6,4.6
		c-1.3,5.6-2.7,11.2-4,16.8c-1.4,5.6-2.7,11.3-4.1,17c3.1,0,6.2,0,9.3,0c1.2-5.1,2.4-10.2,3.6-15.3c1.2-5.1,2.4-10.1,3.6-15.2
		c0.5-2.2,1.2-4.1,1.9-5.7c0.7-1.6,1.6-3,2.4-4c0.9-1.1,1.8-1.8,2.8-2.4c0.9-0.5,1.9-0.8,2.8-0.8c0.7,0,1.3,0.1,1.9,0.4
		c0.6,0.3,1.1,0.8,1.4,1.5c0.4,0.7,0.6,1.7,0.6,2.9c0,1.2-0.1,2.8-0.6,4.6c-1.3,5.6-2.6,11.2-3.9,16.8
		C389.9,77.2,388.6,82.9,387.3,88.6L387.3,88.6z M418.2,60.6c0.6-2.7,1.4-5,2.3-7c0.9-2,1.9-3.7,3-5c1.1-1.3,2.2-2.3,3.4-3
		c1.2-0.7,2.3-1,3.5-1c1.2,0,2.2,0.3,3.1,1c0.9,0.7,1.6,1.7,2.1,3c0.5,1.3,0.8,3,0.8,5c0,2-0.3,4.3-0.8,7c-0.6,2.7-1.3,5-2.2,7
		c-0.9,2-1.9,3.7-3,5.1c-1.1,1.4-2.2,2.4-3.4,3.1c-1.2,0.7-2.4,1-3.6,1c-1.2,0-2.2-0.3-3.1-1c-0.9-0.7-1.6-1.7-2.1-3.1
		c-0.5-1.4-0.7-3.1-0.7-5.1C417.3,65.7,417.6,63.3,418.2,60.6L418.2,60.6z M398.1,109.9c3.1,0,6.2,0,9.4,0c1-4.6,2.1-9.3,3.1-13.9
		c1-4.6,2.1-9.2,3.1-13.8c0,0,0,0,0.1,0c0.2,1.7,0.7,3.2,1.5,4.5c0.7,1.3,1.8,2.3,3,3c1.3,0.7,2.8,1,4.5,1.1c2.2,0,4.5-0.8,6.7-2.2
		c2.2-1.5,4.3-3.5,6.3-6.2c2-2.7,3.8-5.9,5.4-9.6c1.6-3.7,2.9-7.8,3.9-12.4c1.1-4.9,1.6-9.2,1.5-12.8c0-3.7-0.5-6.7-1.5-9.1
		c-1-2.4-2.3-4.2-3.9-5.4c-1.7-1.2-3.7-1.8-5.9-1.8c-1.3,0-2.5,0.2-3.8,0.7c-1.3,0.5-2.6,1.4-4,2.7c-1.4,1.3-2.9,3.1-4.6,5.6
		c0,0-0.1,0-0.1,0c0.6-2.5,1.1-5,1.7-7.5c-2.9,0-5.9,0-8.8,0c-2.9,12.6-5.8,25.3-8.7,38.1C404,83.7,401.1,96.7,398.1,109.9
		L398.1,109.9z M444,88.6c3.1,0,6.2,0,9.3,0c0.9-4.1,1.7-8.2,2.6-12.2c0.9-4.1,1.7-8.1,2.6-12.1c0.8-3.6,1.8-6.7,3-9.3
		c1.2-2.5,2.6-4.5,4.3-5.8c1.6-1.3,3.5-2,5.6-2c0.8,0,1.7,0.2,2.4,0.5c0.8,0.3,1.5,0.7,2.3,1.2c1.2-5.7,2.3-11.4,3.5-17
		c-0.5-0.2-1-0.3-1.6-0.4c-0.6-0.1-1.1-0.1-1.6-0.1c-1.3,0-2.5,0.2-3.6,0.7c-1.1,0.5-2.2,1.2-3.3,2.2c-1,1-2.1,2.3-3.2,3.8
		c-1.1,1.5-2.3,3.4-3.6,5.5c0,0-0.1,0-0.1,0c0.8-3.6,1.5-7.2,2.3-10.8c-2.9,0-5.9,0-8.8,0c-2,9.2-4,18.4-6,27.7
		C448.1,69.7,446,79.1,444,88.6L444,88.6z M499.9,65.7c-0.4,1.9-0.9,3.6-1.6,5.1c-0.7,1.5-1.5,2.8-2.3,3.9c-0.9,1.1-1.8,2-2.8,2.8
		c-1,0.7-2,1.3-3,1.7c-1,0.4-2,0.5-2.9,0.5c-1.2,0-2.1-0.3-2.9-0.9c-0.7-0.6-1.3-1.5-1.5-2.7c-0.2-1.2-0.2-2.6,0.1-4.3
		c0.3-1.7,0.8-3,1.4-4c0.6-1,1.3-1.8,2.1-2.3c0.8-0.5,1.8-0.8,2.9-1c1.8-0.3,3.7-0.6,5.5-0.9c0.9-0.1,1.9-0.4,2.9-0.7
		c1-0.3,2-0.9,3-1.7C500.6,62.6,500.2,64.1,499.9,65.7L499.9,65.7z M488.4,49.5c0.7-1.9,1.4-3.4,2-4.5c0.7-1.1,1.3-1.9,2-2.5
		c0.7-0.5,1.4-0.9,2.2-1c0.8-0.2,1.7-0.2,2.6-0.2c1.8,0,3.1,0.2,4.1,0.7c0.9,0.5,1.6,1.2,1.8,2.2c0.3,1,0.3,2.2,0,3.7
		c-0.3,1.5-0.6,2.6-1,3.4c-0.4,0.8-0.9,1.4-1.5,1.7c-0.6,0.3-1.4,0.6-2.4,0.7c-3.3,0.5-6.7,0.9-10,1.3c-1.2,0.1-2.3,0.4-3.5,0.8
		c-1.2,0.4-2.4,1-3.5,1.7c-1.1,0.7-2.2,1.8-3.3,3c-1,1.3-1.9,2.9-2.8,4.8c-0.8,1.9-1.6,4.3-2.1,7c-0.7,3.3-0.9,6.1-0.8,8.4
		c0.1,2.3,0.6,4.2,1.4,5.7c0.8,1.5,1.9,2.6,3.3,3.2c1.4,0.7,3,1,4.9,1c1.1,0,2.2-0.1,3.5-0.4c1.3-0.3,2.6-0.7,3.9-1.3
		c1.3-0.6,2.6-1.5,3.9-2.5c1.3-1.1,2.5-2.4,3.6-4c-0.1,1-0.3,2-0.4,3c-0.1,1-0.1,2-0.2,3c3.1,0,6.2,0,9.3,0c-0.1-1.4,0-3.1,0.2-4.9
		c0.2-1.9,0.5-4.1,1-6.5c0.9-4.7,1.8-9.3,2.7-14c0.9-4.6,1.8-9.2,2.7-13.8c0.4-2.1,0.7-4.1,0.8-5.9c0.1-1.9,0-3.6-0.4-5.2
		c-0.4-1.6-1.1-2.9-2-4c-1-1.1-2.3-2-4-2.7c-1.7-0.6-3.9-1-6.5-1c-1.5,0-3,0.1-4.5,0.3c-1.6,0.2-3,0.7-4.5,1.4
		c-1.5,0.7-2.9,1.8-4.3,3.2c-1.4,1.4-2.6,3.2-3.8,5.5c-1.2,2.3-2.2,5.1-3.1,8.5C482.5,49.5,485.4,49.5,488.4,49.5L488.4,49.5z"/>
	<path class="st2" d="M113.3,27.1c5.2,0,10.4,0,15.7,0c0.8,0,1.5,0.1,2.2,0.4c0.7,0.3,1.2,0.8,1.7,1.5c0.4,0.7,0.6,1.7,0.7,2.9
		c0,1.2-0.3,2.8-0.8,4.7c-0.5,1.8-1.2,3.3-1.9,4.5c-0.7,1.2-1.5,2.2-2.3,3c-0.8,0.8-1.6,1.3-2.4,1.7c-0.8,0.3-1.5,0.5-2.2,0.5
		c-5.4,0-10.9,0-16.3,0C109.3,39.9,111.3,33.5,113.3,27.1L113.3,27.1z M98.3,35.6H0v9.2h95.5L93.9,50L0,49.9v9.3h91l-1.6,5.1H0v9.2
		h86.6l-1.9,6.1H0l0,9.2l81.8,0h0.2h0.2h0.2h0.1h0.1h0.2H83h0.2h0.2h0.2h0.2H84h0h0.2h0.2h0.2h0.2h0.2h0.2h0.2h0.1h0.1h0.2h0.2h0.2
		h0.2h0.2h0.2h0.2h0h0.2h0.2h0.2h0.2h0.2H88h0.2h0.2h5.8l9.2-28.1c4.9,0,9.8,0,14.8,0c1,0,1.8,0.2,2.5,0.6c0.7,0.4,1.2,1.1,1.4,2.1
		c0.3,1,0.3,2.3,0.1,4.1c-0.2,1.7-0.7,3.9-1.5,6.6c-0.6,2-1.1,3.7-1.6,5.2c-0.4,1.5-0.8,2.8-1,3.8c-0.3,1.1-0.5,2.1-0.6,3
		c-0.1,0.9-0.2,1.8-0.2,2.7c4.5,0,9,0,13.5,0c-0.2-1-0.3-2.2-0.2-3.7c0.1-1.5,0.4-3,0.7-4.7c0.3-1.6,0.7-3.2,1.1-4.7
		c0.4-1.4,0.7-2.6,1-3.6c0.5-1.5,0.9-3.1,1.4-4.9c0.4-1.7,0.8-3.4,1.1-5.1c0.3-1.7,0.4-3.3,0.4-4.8c0-1.5-0.3-2.7-0.7-3.7
		c-0.4-1-1.1-1.6-2.1-1.9c0-0.1,0-0.1,0.1-0.2c3-1.6,5.6-3.8,7.7-6.9c2.1-3,3.9-6.9,5.3-11.5c0.5-1.6,0.9-3.3,1.2-5.1
		c0.3-1.9,0.5-3.7,0.4-5.5c0-1.8-0.4-3.5-1-5c-0.6-1.5-1.7-2.7-3.1-3.6c-1.4-0.9-3.4-1.4-5.9-1.4c-11,0-22,0-32.9,0L98.3,35.6
		L98.3,35.6z M170.9,71.8c-1.6,2.5-3.3,4.3-5.3,5.6c-1.9,1.3-4.1,1.9-6.3,1.9c-1.9,0-3.4-0.5-4.5-1.4c-1.1-0.9-1.9-2.1-2.4-3.5
		c-0.5-1.4-0.7-2.9-0.6-4.5c0.1-1.6,0.3-3.1,0.7-4.5c0-0.1,0-0.1,0.1-0.2c11,0,21.9,0,32.9,0c0.2-0.6,0.3-1.1,0.5-1.7
		c2.2-7.2,3.2-13.3,3.2-18.4c-0.1-5.1-1.3-8.9-3.7-11.6c-2.4-2.7-6.1-4-11-4c-3.4,0-6.6,0.6-9.7,1.8c-3.1,1.2-6,3-8.8,5.5
		c-2.7,2.5-5.2,5.7-7.5,9.6c-2.3,3.9-4.2,8.5-5.9,13.9c-1.6,5.4-2.5,10-2.6,13.9c-0.1,3.9,0.4,7.1,1.7,9.6c1.2,2.5,3,4.4,5.4,5.5
		c2.4,1.2,5.3,1.8,8.7,1.8c3.4,0,6.8-0.7,10-2c3.2-1.3,6.3-3.4,9.1-6.3c2.9-2.9,5.6-6.5,8-11.1C178.9,71.8,174.9,71.8,170.9,71.8
		L170.9,71.8z M156,54.1c0-0.1,0-0.1,0.1-0.2c0.1-0.3,0.4-0.9,0.8-1.8c0.5-1,1.1-2,1.9-3.2c0.8-1.2,1.8-2.4,3-3.5
		c1.2-1.2,2.5-2.1,4-2.9c1.5-0.8,3.1-1.2,4.9-1.2c1.6,0,2.9,0.3,3.9,1c1,0.7,1.7,1.5,2.2,2.6c0.5,1.1,0.8,2.2,0.9,3.3
		c0.1,1.2,0.1,2.3,0,3.3c-0.1,1-0.2,1.9-0.5,2.5c0,0.1,0,0.1-0.1,0.2C170.1,54.1,163.1,54.1,156,54.1L156,54.1z M202.6,60.5
		c0.8-2.7,1.8-5.1,3-7.2c1.2-2.1,2.5-3.8,3.9-5.2c1.4-1.4,2.8-2.4,4.3-3.1c1.5-0.7,2.9-1.1,4.4-1.1c1.4,0,2.6,0.3,3.7,1.1
		c1,0.7,1.8,1.7,2.4,3.1c0.6,1.4,0.8,3.1,0.8,5.2c-0.1,2.1-0.5,4.5-1.3,7.2c-0.8,2.7-1.8,5.1-3,7.2c-1.2,2.1-2.5,3.8-3.9,5.2
		c-1.4,1.4-2.8,2.4-4.3,3.1c-1.5,0.7-2.9,1.1-4.3,1.1c-1.4,0-2.7-0.4-3.7-1.1c-1.1-0.7-1.9-1.7-2.4-3.1c-0.6-1.4-0.8-3.1-0.7-5.2
		C201.4,65.6,201.8,63.2,202.6,60.5L202.6,60.5z M215.2,88.9c3.6,0,7.2,0,10.9,0c3.9-13,7.7-25.9,11.6-38.8
		c3.8-12.9,7.7-25.8,11.5-38.6c-3.7,0-7.5,0-11.2,0c-1.4,4.5-2.7,9.1-4.1,13.6c-1.4,4.5-2.7,9.1-4.1,13.6c0,0-0.1,0-0.1,0
		c-0.2-1.7-0.7-3.2-1.6-4.5c-0.9-1.3-2-2.3-3.5-3c-1.5-0.7-3.3-1.1-5.4-1.1c-2.7,0-5.4,0.7-8.1,2.2c-2.7,1.4-5.4,3.5-7.9,6.2
		c-2.5,2.7-4.8,5.9-6.9,9.7c-2.1,3.8-3.9,8-5.3,12.6c-1.5,5-2.3,9.4-2.5,13.2c-0.2,3.8,0.2,6.9,1.2,9.4c1,2.5,2.4,4.4,4.3,5.7
		c1.9,1.3,4.2,1.9,6.9,1.9c1.7,0,3.4-0.2,5.2-0.8c1.8-0.5,3.6-1.5,5.4-2.9c1.8-1.4,3.7-3.3,5.7-5.7c0,0,0.1,0,0.1,0
		C216.6,84.1,215.9,86.5,215.2,88.9L215.2,88.9z"/>
</g>
</svg>
