<?xml version="1.0" encoding="utf-8"?>
<!-- Generator: Adobe Illustrator 22.1.0, SVG Export Plug-In . SVG Version: 6.00 Build 0)  -->
<svg version="1.1" id="Layer_1" xmlns="http://www.w3.org/2000/svg" xmlns:xlink="http://www.w3.org/1999/xlink" x="0px" y="0px"
	 viewBox="0 0 841.9 595.3" style="enable-background:new 0 0 841.9 595.3;" xml:space="preserve">
<style type="text/css">
	.Arched_x0020_Green{fill:url(#SVGID_1_);stroke:#FFFFFF;stroke-width:0.25;stroke-miterlimit:1;}
	.st0{fill:#FFFFFF;}
	.st1{fill:#005294;}
	.st2{fill:#E3A715;}
</style>
<linearGradient id="SVGID_1_" gradientUnits="userSpaceOnUse" x1="0" y1="595.2803" x2="0.7071" y2="594.5732">
	<stop  offset="0" style="stop-color:#5E9D3B"/>
	<stop  offset="0.9831" style="stop-color:#2A3A23"/>
</linearGradient>
<g>
	<polygon class="st0" points="9.2,52.8 9.2,541.3 832.7,541.3 832.7,52.8 9.2,52.8 	"/>
	<polygon class="st1" points="145.6,221.2 193.6,402.4 249.4,402.4 336.1,192.5 279.6,192.5 224.9,335 202.5,223.5 145.6,221.2 	"/>
	<polygon class="st1" points="357.2,191.7 323.9,402.4 376.6,402.4 410.7,191.7 357.2,191.7 	"/>
	<path class="st1" d="M565.6,242.1l7.7-44.1c0,0-23.2-9.3-51.1-9.3c-27.9,0-88.3,17.8-88.3,69.7c0,51.9,75.1,54.2,75.1,82.9
		c0,28.7-67.4,25.6-87.5,7l-8.5,45.7c0,0,30.2,11.6,57.3,11.6c27.1,0,94.5-6.2,94.5-73.6c0-58.9-75.1-47.3-75.1-82.9
		C489.7,249.1,497.4,213.4,565.6,242.1L565.6,242.1z"/>
	<path class="st1" d="M561.7,402.4h58.1l10.1-30.2h71.2l5.9,29.9h50.4l-46.2-208.1h-46.5c0,0-17,1.9-24.8,22.5
		C632.6,236,561.7,402.4,561.7,402.4L561.7,402.4z"/>
	<polygon class="st0" points="692.6,328.8 645.3,328.8 674.8,251.4 692.6,328.8 	"/>
	<path class="st1" d="M219,305.8l-16.6-82.4c0,0-2.2-30.9-24.3-30.9h-90v4.3C88.2,196.9,177.2,211.6,219,305.8L219,305.8z"/>
	<rect x="9.2" y="433.2" class="st2" width="823.6" height="122.1"/>
	<rect x="9.2" y="40" class="st1" width="823.6" height="122.1"/>
</g>
</svg>
