<?xml version="1.0" encoding="utf-8"?>
<!-- Generator: Adobe Illustrator 21.1.0, SVG Export Plug-In . SVG Version: 6.00 Build 0)  -->
<svg version="1.1" id="Capa_1" xmlns="http://www.w3.org/2000/svg" xmlns:xlink="http://www.w3.org/1999/xlink" x="0px" y="0px"
	 viewBox="0 0 87.6 49.9" style="enable-background:new 0 0 87.6 49.9;" xml:space="preserve">
<style type="text/css">
	.st0{clip-path:url(#SVGID_2_);fill:#1A1A1A;}
	.st1{clip-path:url(#SVGID_2_);fill:#FFFFFF;}
	.st2{clip-path:url(#SVGID_4_);fill:url(#SVGID_5_);}
</style>
<g>
	<defs>
		<rect id="SVGID_1_" y="0" width="87.6" height="49.9"/>
	</defs>
	<clipPath id="SVGID_2_">
		<use xlink:href="#SVGID_1_"  style="overflow:visible;"/>
	</clipPath>
	<path class="st0" d="M87.5,45.7c0,2.3-1.9,4.2-4.3,4.2l-79-0.1c-2.4,0-4.3-1.9-4.3-4.2L0,4.2C0,1.9,1.9,0,4.3,0l79,0.1
		c2.4,0,4.3,1.9,4.3,4.2L87.5,45.7z"/>
	<path class="st1" d="M39.6,21.1c-2.7,0-5,2.3-5,5.2c0,2.9,2.2,5.2,5,5.2c2.7,0,5-2.3,5-5.2C44.6,23.5,42.3,21.1,39.6,21.1
		 M39.6,29.2c-1.6,0-2.8-1.3-2.8-3c0-1.7,1.3-3,2.8-3c1.6,0,2.8,1.3,2.8,3C42.4,27.9,41.2,29.3,39.6,29.2"/>
	<path class="st1" d="M10.9,30.7c0,0.7,0.6,1.3,1.3,1.3c0.7,0,1.3-0.6,1.3-1.3l0-11.7c0-0.7-0.5-1.3-1.2-1.3c-0.7,0-1.3,0.6-1.3,1.3
		L10.9,30.7"/>
	<path class="st1" d="M46.3,30.8c0,0.7,0.6,1.3,1.3,1.3c0.7,0,1.3-0.6,1.3-1.3l0-11.7c0-0.7-0.5-1.3-1.2-1.3c-0.7,0-1.3,0.6-1.3,1.3
		L46.3,30.8"/>
	<path class="st1" d="M28.4,17.7c-3.8,0.3-3.9,3.5-3.9,3.5s0,9.1,0,9.6c0,0.5,0.1,1.3,1.3,1.2c1.2,0,1.1-1,1.1-1v-1.6
		c0-1.1,2.8-0.9,2.8-0.9c4.6-0.2,5-4.1,5-4.1C35.7,17,28.4,17.7,28.4,17.7 M29.5,26.1c0,0-1.8-0.1-2.5,0.3l0-5c0,0,0.2-1.4,2.1-1.5
		c0,0,3.1-0.4,3.2,3.1C32.5,26.6,29.5,26.1,29.5,26.1"/>
	<path class="st1" d="M65.6,23.7c0.6,0.1,1.2-0.5,1.2-1.2c0-0.6-0.5-1.2-1.2-1.2c0,0-5.3-0.8-5.5,2.3c-0.3,3.1,0,7.6,0,7.6
		s0.3,0.8,1.2,0.8c0.9-0.1,1.2-1,1.2-1c0,0.1-0.1-7-0.1-6.9C62.4,24.3,62.3,23.3,65.6,23.7"/>
	<path class="st1" d="M58.7,23.9c-0.1-1.6-1.8-2.5-3.7-2.6c-1.8-0.1-2.8,0.6-2.8,0.6s-1.4,0.9-0.9,1.7c0.5,0.8,0.9,0.7,1,0.7
		c0.5-0.4,1.9-0.6,2.5-0.6c0.5,0,1.5,0,1.5,0.8s-0.5,0.6-3.2,0.7c-2.7,0.1-3,2.3-3.1,3.3c-0.1,1,0.5,3.7,4.5,3.7
		c4,0,4.2-2.3,4.2-2.3S58.7,25.5,58.7,23.9 M54.4,29.7c-2.3-0.1-1.9-1.3-1.9-1.3s-0.2-1.2,3.9-1C56.3,27.5,56.6,29.8,54.4,29.7"/>
	<path class="st1" d="M23,23.9c-0.1-1.6-1.8-2.5-3.7-2.6c-1.8-0.1-2.8,0.6-2.8,0.6s-1.4,0.9-0.9,1.7c0.5,0.8,0.9,0.7,1,0.7
		c0.5-0.4,1.9-0.6,2.5-0.6c0.5,0,1.5,0,1.5,0.8c0,0.8-0.5,0.6-3.2,0.7c-2.7,0.1-3,2.3-3.1,3.3c-0.1,1,0.5,3.7,4.5,3.7
		c4,0,4.2-2.3,4.2-2.3S23.1,25.5,23,23.9 M18.7,29.7c-2.3-0.1-1.9-1.3-1.9-1.3s-0.2-1.2,3.9-1C20.7,27.5,21,29.8,18.7,29.7"/>
</g>
<g>
	<defs>
		<path id="SVGID_3_" d="M48.2,49.8C108.1,33.9,68.6,0,68.6,0C86.8,33.9,48.2,49.8,48.2,49.8"/>
	</defs>
	<clipPath id="SVGID_4_">
		<use xlink:href="#SVGID_3_"  style="overflow:visible;"/>
	</clipPath>
	
		<linearGradient id="SVGID_5_" gradientUnits="userSpaceOnUse" x1="0" y1="49.5893" x2="1" y2="49.5893" gradientTransform="matrix(-0.4337 -49.5924 -49.5924 0.4337 2537.6233 28.0192)">
		<stop  offset="0" style="stop-color:#9F00AA"/>
		<stop  offset="1.520550e-03" style="stop-color:#9F00AA"/>
		<stop  offset="0.1037" style="stop-color:#B70980"/>
		<stop  offset="0.2526" style="stop-color:#D61449"/>
		<stop  offset="0.3812" style="stop-color:#EC1C22"/>
		<stop  offset="0.4829" style="stop-color:#FA2109"/>
		<stop  offset="0.5451" style="stop-color:#FF2300"/>
		<stop  offset="0.6362" style="stop-color:#F94F00"/>
		<stop  offset="0.7576" style="stop-color:#F28400"/>
		<stop  offset="0.8631" style="stop-color:#EDAA00"/>
		<stop  offset="0.9474" style="stop-color:#EAC100"/>
		<stop  offset="1" style="stop-color:#E9CA00"/>
	</linearGradient>
	<polygon class="st2" points="48.2,50.3 47.8,0 108.1,-0.5 108.5,49.8 	"/>
</g>
</svg>
